<svg width="42" height="42" viewBox="0 0 42 42" fill="none" xmlns="http://www.w3.org/2000/svg">
<circle cx="21" cy="21" r="21" fill="#368236"/>
<path d="M21.0249 30C20.7415 30 20.5039 29.904 20.3119 29.712C20.1205 29.5207 20.0249 29.2833 20.0249 29V27.85C19.2749 27.6833 18.6165 27.3917 18.0499 26.975C17.4832 26.5583 17.0249 25.975 16.6749 25.225C16.5582 24.9917 16.5539 24.746 16.6619 24.488C16.7705 24.2293 16.9665 24.0417 17.2499 23.925C17.4832 23.825 17.7249 23.8293 17.9749 23.938C18.2249 24.046 18.4165 24.225 18.5499 24.475C18.8332 24.975 19.1915 25.3543 19.6249 25.613C20.0582 25.871 20.5915 26 21.2249 26C21.9082 26 22.4875 25.846 22.9629 25.538C23.4375 25.2293 23.6749 24.75 23.6749 24.1C23.6749 23.5167 23.4915 23.054 23.1249 22.712C22.7582 22.3707 21.9082 21.9833 20.5749 21.55C19.1415 21.1 18.1582 20.5627 17.6249 19.938C17.0915 19.3127 16.8249 18.55 16.8249 17.65C16.8249 16.5667 17.1749 15.725 17.8749 15.125C18.5749 14.525 19.2915 14.1833 20.0249 14.1V13C20.0249 12.7167 20.1205 12.479 20.3119 12.287C20.5039 12.0957 20.7415 12 21.0249 12C21.3082 12 21.5459 12.0957 21.7379 12.287C21.9292 12.479 22.0249 12.7167 22.0249 13V14.1C22.6582 14.2 23.2082 14.4043 23.6749 14.713C24.1415 15.021 24.5249 15.4 24.8249 15.85C24.9749 16.0667 25.0042 16.3083 24.9129 16.575C24.8209 16.8417 24.6332 17.0333 24.3499 17.15C24.1165 17.25 23.8749 17.254 23.6249 17.162C23.3749 17.0707 23.1415 16.9083 22.9249 16.675C22.7082 16.4417 22.4542 16.2623 22.1629 16.137C21.8709 16.0123 21.5082 15.95 21.0749 15.95C20.3415 15.95 19.7832 16.1127 19.3999 16.438C19.0165 16.7627 18.8249 17.1667 18.8249 17.65C18.8249 18.2 19.0749 18.6333 19.5749 18.95C20.0749 19.2667 20.9415 19.6 22.1749 19.95C23.3249 20.2833 24.1959 20.8123 24.7879 21.537C25.3792 22.2623 25.6749 23.1 25.6749 24.05C25.6749 25.2333 25.3249 26.1333 24.6249 26.75C23.9249 27.3667 23.0582 27.75 22.0249 27.9V29C22.0249 29.2833 21.9292 29.5207 21.7379 29.712C21.5459 29.904 21.3082 30 21.0249 30Z" fill="white"/>
</svg>
