<svg width="42" height="42" viewBox="0 0 42 42" fill="none" xmlns="http://www.w3.org/2000/svg">
<circle cx="21" cy="21" r="21" fill="#368236"/>
<path d="M13.4152 11.4159C13.5201 11.3724 13.6098 11.2988 13.6729 11.2044C13.7359 11.11 13.7696 10.999 13.7696 10.8854C13.7696 10.7719 13.7359 10.6609 13.6729 10.5664C13.6098 10.472 13.5201 10.3984 13.4152 10.355C12.8011 10.1007 12.6698 9.9694 12.4155 9.35526C12.3723 9.25015 12.2987 9.16027 12.2043 9.09702C12.1099 9.03377 11.9988 9 11.8851 9C11.7714 9 11.6603 9.03377 11.5659 9.09702C11.4714 9.16027 11.3979 9.25015 11.3546 9.35526C11.0998 9.9694 10.9718 10.1007 10.3544 10.355C10.2495 10.3984 10.1598 10.472 10.0967 10.5664C10.0337 10.6609 10 10.7719 10 10.8854C10 10.999 10.0337 11.11 10.0967 11.2044C10.1598 11.2988 10.2495 11.3724 10.3544 11.4159C10.9559 11.6653 11.1052 11.8146 11.3546 12.4161C11.3981 12.521 11.4717 12.6107 11.5661 12.6738C11.6605 12.7368 11.7715 12.7705 11.8851 12.7705C11.9986 12.7705 12.1096 12.7368 12.2041 12.6738C12.2985 12.6107 12.3721 12.521 12.4155 12.4161C12.6644 11.8146 12.8142 11.6653 13.4152 11.4159ZM11.884 11.9901C11.6215 11.4137 11.3557 11.1479 10.7798 10.8854C11.3634 10.6218 11.6209 10.3632 11.8851 9.78128C12.1487 10.3632 12.4068 10.6218 12.9892 10.8854C12.4155 11.1479 12.147 11.4137 11.8851 11.9901H11.884Z" fill="white"/>
<path d="M32.6232 22.419C32.0091 22.1642 31.8779 22.0335 31.6236 21.4193C31.5801 21.3144 31.5065 21.2248 31.4121 21.1617C31.3176 21.0986 31.2066 21.0649 31.0931 21.0649C30.9795 21.0649 30.8685 21.0986 30.7741 21.1617C30.6797 21.2248 30.6061 21.3144 30.5626 21.4193C30.3078 22.034 30.1771 22.1647 29.5624 22.4196C29.4575 22.463 29.3678 22.5366 29.3048 22.631C29.2417 22.7255 29.208 22.8365 29.208 22.95C29.208 23.0636 29.2417 23.1746 29.3048 23.269C29.3678 23.3634 29.4575 23.437 29.5624 23.4805C30.1639 23.7299 30.3132 23.8792 30.5626 24.4802C30.6061 24.5851 30.6797 24.6747 30.7741 24.7378C30.8685 24.8009 30.9795 24.8346 31.0931 24.8346C31.2066 24.8346 31.3176 24.8009 31.4121 24.7378C31.5065 24.6747 31.5801 24.5851 31.6236 24.4802C31.8724 23.8786 32.0222 23.7293 32.6232 23.4799C32.7284 23.4367 32.8182 23.3631 32.8815 23.2687C32.9447 23.1743 32.9785 23.0631 32.9785 22.9495C32.9785 22.8358 32.9447 22.7247 32.8815 22.6303C32.8182 22.5358 32.7284 22.4623 32.6232 22.419ZM31.092 24.0536C30.8295 23.4778 30.5637 23.212 29.9879 22.9495C30.5703 22.6859 30.8279 22.4278 31.092 21.8453C31.3556 22.4278 31.6137 22.6859 32.1961 22.9495C31.6214 23.2147 31.355 23.4778 31.0931 24.0536H31.092Z" fill="white"/>
<path d="M28.5325 27.0078H26.1421C26.0406 27.0078 25.9432 27.0482 25.8714 27.1199C25.7996 27.1917 25.7593 27.2891 25.7593 27.3906V28.1054L24.1039 28.5429L20.2577 26.8963C20.2457 26.8913 20.2337 26.887 20.2211 26.8831C19.9808 26.8076 19.7233 26.8067 19.4825 26.8804C19.2417 26.9542 19.0288 27.0992 18.872 27.2963C18.7153 27.4934 18.6219 27.7334 18.6042 27.9846C18.5865 28.2359 18.6453 28.4866 18.773 28.7037H18.5542C18.1957 28.7042 17.8384 28.6607 17.4905 28.5741L14.673 27.8708C14.2447 27.7643 13.7922 27.8188 13.4014 28.0238C13.0106 28.2289 12.7087 28.5703 12.5529 28.9833C12.3972 29.3962 12.3984 29.852 12.5565 30.2641C12.7145 30.6762 13.0184 31.0159 13.4103 31.2188L16.2983 32.709C16.7143 32.9238 17.1755 33.0363 17.6437 33.0371H25.7593V33.462C25.7593 33.5636 25.7996 33.6609 25.8714 33.7327C25.9432 33.8045 26.0406 33.8449 26.1421 33.8449H28.5303C28.6318 33.8449 28.7292 33.8045 28.801 33.7327C28.8728 33.6609 28.9131 33.5636 28.9131 33.462V27.3917C28.9134 27.2904 28.8735 27.1931 28.8022 27.1211C28.7308 27.0491 28.6338 27.0084 28.5325 27.0078ZM25.7593 32.2699H17.6437C17.2978 32.2696 16.957 32.1869 16.6494 32.0287L13.7614 30.5374C13.536 30.4207 13.3613 30.2253 13.2704 29.9884C13.1795 29.7514 13.1788 29.4893 13.2684 29.2519C13.358 29.0144 13.5316 28.8181 13.7564 28.7002C13.9811 28.5823 14.2414 28.5511 14.4876 28.6124L17.3051 29.3162C17.7132 29.4179 18.1321 29.4693 18.5526 29.4693H19.8651L20.6558 29.8521C20.7071 29.8767 20.7631 29.8898 20.8199 29.8904C20.9067 29.8906 20.9909 29.8614 21.0589 29.8075C21.1268 29.7536 21.1744 29.6782 21.1939 29.5937C21.2135 29.5092 21.2037 29.4205 21.1662 29.3423C21.1288 29.2641 21.0659 29.2009 20.9878 29.1631L19.6332 28.5068C19.5254 28.454 19.4412 28.3629 19.397 28.2513C19.3528 28.1397 19.3518 28.0157 19.3941 27.9034C19.4365 27.7911 19.5192 27.6986 19.6261 27.644C19.733 27.5895 19.8565 27.5767 19.9723 27.6083L23.9218 29.2998C24.0002 29.3333 24.0876 29.3396 24.1701 29.3178L25.756 28.8967L25.7593 32.2699ZM28.1475 33.0776H26.5249V27.7729H28.1475V33.0776Z" fill="white"/>
<path d="M13.2305 17.4451C13.2276 18.4696 13.4266 19.4845 13.8161 20.432C14.2056 21.3795 14.778 22.241 15.5005 22.9672C16.223 23.6935 17.0815 24.2702 18.027 24.6646C18.9725 25.0589 19.9865 25.2631 21.0109 25.2654H21.0322C22.0741 25.269 23.106 25.062 24.0659 24.657C25.0258 24.2519 25.8941 23.6572 26.6185 22.9084C27.5413 21.9625 28.2088 20.7977 28.5583 19.5233L28.6075 19.5025L28.5796 19.439C28.8806 18.287 28.9139 17.0813 28.6769 15.9144C28.44 14.7475 27.9391 13.6503 27.2125 12.7069C26.486 11.7634 25.5532 10.9988 24.4856 10.4716C23.4179 9.94443 22.2437 9.6686 21.053 9.66528C20.9217 9.66528 20.7927 9.66528 20.6702 9.67349C19.8952 9.70829 19.1298 9.85908 18.3996 10.1208C17.2963 10.5187 16.2962 11.1588 15.4727 11.9939C14.0393 13.4466 13.234 15.4043 13.2305 17.4451ZM14.9067 20.9304C14.0527 19.4171 13.7873 17.6419 14.1613 15.945C14.5988 16.8146 15.0024 17.7902 14.9521 18.1659L14.9373 18.2753L14.992 18.3715C15.0193 18.4186 15.6592 19.5112 17.098 19.9476C17.1527 20.15 17.0674 20.7936 16.9082 21.3695L16.8672 21.5183L16.9558 21.6446C16.9782 21.6768 17.4945 22.4102 18.1163 22.7684C18.1868 22.9029 18.3055 23.2693 17.8828 23.7561C16.6326 23.1299 15.5968 22.1464 14.9067 20.9304ZM26.8318 13.483C27.6429 14.6596 28.0741 16.0565 28.0672 17.4856C28.0665 17.7533 28.0506 18.0208 28.0196 18.2868C27.8321 17.9723 27.7435 17.9411 27.6702 17.9165C27.54 17.8722 26.886 17.566 26.3369 17.2854C26.2472 17.2395 26.1931 17.2122 26.3615 16.7889C26.4018 16.697 26.4336 16.6016 26.4567 16.504C26.5114 16.2305 26.3194 15.921 26.0979 15.5644C26.0066 15.4173 25.854 15.1712 25.8403 15.0897C25.755 14.5653 25.0288 14.3175 24.2599 14.0561C23.1661 13.6826 22.3458 13.3036 21.835 12.929C21.8047 12.9088 21.778 12.8834 21.7563 12.8541C21.7803 12.7562 22.0374 12.5462 22.1626 12.4445C22.4224 12.2323 22.6466 12.0491 22.6466 11.7811C22.6493 11.6477 22.8418 11.1665 23.048 10.7268C24.5864 11.1877 25.9213 12.1601 26.8318 13.483ZM16.0174 12.5309C16.7599 11.7778 17.6618 11.2006 18.6566 10.8416C19.3154 10.6054 20.006 10.4695 20.7052 10.4386C20.8102 10.4331 20.919 10.4309 21.0289 10.4309H21.0508C21.5033 10.4323 21.9545 10.4774 22.3983 10.5654C22.2277 10.9368 22.0215 11.4322 21.9936 11.7193C21.9164 11.7975 21.8342 11.8706 21.7475 11.9381C21.4539 12.1776 21.0913 12.4762 21.0989 12.8776C21.105 13.1002 21.2225 13.2965 21.4484 13.4611C22.0226 13.8806 22.8735 14.2815 24.0488 14.6796C24.3917 14.7961 25.1037 15.0389 25.1945 15.2057C25.2311 15.4146 25.3744 15.6459 25.5407 15.9128C25.632 16.0604 25.7818 16.3022 25.807 16.4011C25.796 16.4383 25.772 16.4985 25.7523 16.5483C25.6358 16.8414 25.3629 17.5266 26.0389 17.8722C26.4895 18.1025 27.1277 18.4076 27.3885 18.5132C27.4733 18.6313 27.6461 18.9742 27.8157 19.3422C27.6014 20.1192 27.2545 20.8534 26.7903 21.5122C26.5736 21.8194 26.3332 22.109 26.0711 22.3785C25.4178 23.0539 24.6347 23.5903 23.7689 23.9556C22.9031 24.3209 21.9725 24.5075 21.0328 24.5042H21.0131C20.1551 24.5015 19.3049 24.3416 18.5046 24.0322C19.1898 23.0965 18.6139 22.3309 18.609 22.3216L18.5642 22.2642L18.4996 22.2308C18.1168 22.0345 17.7466 21.5981 17.5831 21.3881C17.6241 21.2197 17.6875 20.9391 17.7291 20.6493C17.7734 20.3332 17.8932 19.4948 17.3463 19.3368C16.6486 19.1368 16.0382 18.7085 15.6127 18.1205C15.6165 17.2865 14.7973 15.7083 14.4282 15.0394C14.438 15.0121 14.4478 14.9847 14.4582 14.9568C14.8039 14.0487 15.3348 13.2225 16.0174 12.5309Z" fill="white"/>
<path d="M18.9236 18.9037L20.5095 20.1522C20.6575 20.2688 20.8405 20.3323 21.029 20.3323C21.2175 20.3323 21.4005 20.2688 21.5486 20.1522L23.1345 18.902C23.3566 18.7283 23.5361 18.5062 23.6593 18.2526C23.7825 17.9989 23.8462 17.7205 23.8454 17.4386V17.1712C23.8446 16.845 23.7529 16.5256 23.5805 16.2487C23.4082 15.9718 23.1621 15.7484 22.8699 15.6036C22.5776 15.4588 22.2508 15.3984 21.9261 15.429C21.6014 15.4597 21.2917 15.5802 21.0318 15.7772C20.7717 15.5794 20.4615 15.4581 20.1363 15.4271C19.811 15.3961 19.4835 15.4565 19.1908 15.6016C18.898 15.7467 18.6516 15.9706 18.4792 16.2482C18.3069 16.5258 18.2155 16.8461 18.2153 17.1728V17.4402C18.2142 17.722 18.2774 18.0003 18.4001 18.2539C18.5229 18.5075 18.7019 18.7297 18.9236 18.9037ZM18.9782 17.1728C18.9782 16.9687 19.0412 16.7697 19.1588 16.6029C19.2764 16.4361 19.4428 16.3098 19.635 16.2414C19.8273 16.173 20.036 16.1657 20.2325 16.2207C20.429 16.2756 20.6037 16.3901 20.7326 16.5483C20.7685 16.5922 20.8137 16.6276 20.865 16.6519C20.9163 16.6762 20.9723 16.6888 21.029 16.6888C21.0858 16.6888 21.1418 16.6762 21.193 16.6519C21.2443 16.6276 21.2895 16.5922 21.3254 16.5483C21.4543 16.3901 21.629 16.2756 21.8255 16.2207C22.0221 16.1657 22.2308 16.173 22.423 16.2414C22.6153 16.3098 22.7816 16.4361 22.8992 16.6029C23.0168 16.7697 23.0799 16.9687 23.0798 17.1728V17.4402C23.0801 17.6063 23.0426 17.7703 22.9701 17.9197C22.8976 18.0691 22.7921 18.2001 22.6614 18.3026L21.0782 19.5506C21.065 19.561 21.0486 19.5666 21.0318 19.5666C21.0149 19.5666 20.9985 19.561 20.9853 19.5506L19.3993 18.3005C19.2687 18.1979 19.1631 18.0669 19.0906 17.9175C19.0182 17.7681 18.9807 17.6041 18.981 17.438L18.9782 17.1728Z" fill="white"/>
</svg>
