<svg width="42" height="42" viewBox="0 0 42 42" fill="none" xmlns="http://www.w3.org/2000/svg">
<circle cx="21" cy="21" r="21" fill="#368236"/>
<path d="M27.6467 10.1875H11.8579V31H30.5174V13.0582C30.5174 12.2968 30.2149 11.5667 29.6766 11.0283C29.1382 10.4899 28.4081 10.1875 27.6467 10.1875ZM16.8816 30.2823H12.5756V10.9052H16.8816V30.2823ZM29.7997 30.2823H17.5993V10.9052H27.6467C28.2177 10.9052 28.7653 11.132 29.1691 11.5358C29.5729 11.9395 29.7997 12.4872 29.7997 13.0582V30.2823Z" fill="white"/>
<path d="M14.7288 15.2113C15.0127 15.2113 15.2902 15.1271 15.5262 14.9694C15.7623 14.8116 15.9462 14.5875 16.0549 14.3252C16.1635 14.0629 16.192 13.7743 16.1366 13.4959C16.0812 13.2175 15.9445 12.9617 15.7437 12.761C15.543 12.5602 15.2873 12.4235 15.0088 12.3682C14.7304 12.3128 14.4418 12.3412 14.1795 12.4498C13.9172 12.5585 13.6931 12.7424 13.5354 12.9785C13.3776 13.2145 13.2935 13.492 13.2935 13.7759C13.2935 14.1566 13.4447 14.5217 13.7139 14.7909C13.983 15.06 14.3481 15.2113 14.7288 15.2113ZM14.7288 13.0582C14.8707 13.0582 15.0095 13.1003 15.1275 13.1792C15.2455 13.2581 15.3375 13.3701 15.3918 13.5013C15.4462 13.6324 15.4604 13.7767 15.4327 13.9159C15.405 14.0551 15.3366 14.183 15.2363 14.2834C15.1359 14.3838 15.008 14.4521 14.8688 14.4798C14.7296 14.5075 14.5853 14.4933 14.4542 14.439C14.323 14.3846 14.2109 14.2927 14.1321 14.1746C14.0532 14.0566 14.0111 13.9179 14.0111 13.7759C14.0111 13.5856 14.0867 13.403 14.2213 13.2685C14.3559 13.1339 14.5385 13.0582 14.7288 13.0582Z" fill="white"/>
<path d="M14.7288 22.3879C15.0127 22.3879 15.2902 22.3037 15.5262 22.146C15.7623 21.9883 15.9462 21.7641 16.0549 21.5018C16.1635 21.2396 16.192 20.951 16.1366 20.6725C16.0812 20.3941 15.9445 20.1384 15.7437 19.9376C15.543 19.7369 15.2873 19.6002 15.0088 19.5448C14.7304 19.4894 14.4418 19.5178 14.1795 19.6265C13.9172 19.7351 13.6931 19.9191 13.5354 20.1551C13.3776 20.3912 13.2935 20.6687 13.2935 20.9526C13.2935 21.3332 13.4447 21.6983 13.7139 21.9675C13.983 22.2367 14.3481 22.3879 14.7288 22.3879ZM14.7288 20.2349C14.8707 20.2349 15.0095 20.277 15.1275 20.3558C15.2455 20.4347 15.3375 20.5468 15.3918 20.6779C15.4462 20.8091 15.4604 20.9534 15.4327 21.0926C15.405 21.2318 15.3366 21.3597 15.2363 21.46C15.1359 21.5604 15.008 21.6287 14.8688 21.6564C14.7296 21.6841 14.5853 21.6699 14.4542 21.6156C14.323 21.5613 14.2109 21.4693 14.1321 21.3513C14.0532 21.2333 14.0111 21.0945 14.0111 20.9526C14.0111 20.7622 14.0867 20.5797 14.2213 20.4451C14.3559 20.3105 14.5385 20.2349 14.7288 20.2349Z" fill="white"/>
<path d="M14.7288 28.847C15.0127 28.847 15.2902 28.7628 15.5262 28.6051C15.7623 28.4474 15.9462 28.2232 16.0549 27.9609C16.1635 27.6987 16.192 27.4101 16.1366 27.1316C16.0812 26.8532 15.9445 26.5975 15.7437 26.3967C15.543 26.196 15.2873 26.0593 15.0088 26.0039C14.7304 25.9485 14.4418 25.9769 14.1795 26.0856C13.9172 26.1942 13.6931 26.3782 13.5354 26.6142C13.3776 26.8503 13.2935 27.1278 13.2935 27.4117C13.2935 27.7923 13.4447 28.1574 13.7139 28.4266C13.983 28.6958 14.3481 28.847 14.7288 28.847ZM14.7288 26.694C14.8707 26.694 15.0095 26.7361 15.1275 26.8149C15.2455 26.8938 15.3375 27.0059 15.3918 27.137C15.4462 27.2682 15.4604 27.4125 15.4327 27.5517C15.405 27.6909 15.3366 27.8188 15.2363 27.9191C15.1359 28.0195 15.008 28.0879 14.8688 28.1155C14.7296 28.1432 14.5853 28.129 14.4542 28.0747C14.323 28.0204 14.2109 27.9284 14.1321 27.8104C14.0532 27.6924 14.0111 27.5536 14.0111 27.4117C14.0111 27.2213 14.0867 27.0388 14.2213 26.9042C14.3559 26.7696 14.5385 26.694 14.7288 26.694Z" fill="white"/>
<path d="M28.0056 12.6993H19.3936V13.417H28.0056V12.6993Z" fill="white"/>
<path d="M28.0056 14.8524H19.3936V15.5701H28.0056V14.8524Z" fill="white"/>
<path d="M28.0056 17.0054H19.3936V17.723H28.0056V17.0054Z" fill="white"/>
<path d="M28.0056 19.1584H19.3936V19.8761H28.0056V19.1584Z" fill="white"/>
</svg>
