<svg width="42" height="42" viewBox="0 0 42 42" fill="none" xmlns="http://www.w3.org/2000/svg">
<circle cx="21" cy="21" r="21" fill="#368236"/>
<path d="M27.875 11.7143C27.875 11.3196 27.5673 11 27.1875 11H24.4375C24.0577 11 23.75 11.3196 23.75 11.7143V13.8571H27.875V11.7143ZM12.7461 16.7138C12.6383 20.9036 10.1487 21.8134 10 27.6071V29.5714C10 30.3603 10.6157 31 11.375 31H15.5C16.2593 31 16.875 30.3603 16.875 29.5714V22.4286H18.25V15.2857H14.1181C13.3606 15.2857 12.7668 15.9272 12.7461 16.7138ZM29.2539 16.7138C29.2332 15.9272 28.6394 15.2857 27.8819 15.2857H23.75V22.4286H25.125V29.5714C25.125 30.3603 25.7407 31 26.5 31H30.625C31.3843 31 32 30.3603 32 29.5714V27.6071C31.8513 21.8134 29.3617 20.9036 29.2539 16.7138ZM17.5625 11H14.8125C14.4327 11 14.125 11.3196 14.125 11.7143V13.8571H18.25V11.7143C18.25 11.3196 17.9423 11 17.5625 11ZM19.625 22.4286H22.375V15.2857H19.625V22.4286Z" fill="white"/>
</svg>
