<svg width="42" height="42" viewBox="0 0 42 42" fill="none" xmlns="http://www.w3.org/2000/svg">
<circle cx="21" cy="21" r="21" fill="#368236"/>
<path d="M10.2925 29.3824L19.8925 19.7824L18.4925 18.3624L17.7725 19.0724C17.68 19.1651 17.5701 19.2387 17.4491 19.2889C17.3282 19.3391 17.1985 19.3649 17.0675 19.3649C16.9365 19.3649 16.8068 19.3391 16.6859 19.2889C16.5649 19.2387 16.455 19.1651 16.3625 19.0724L15.6525 18.3624C15.5598 18.2699 15.4862 18.16 15.4361 18.0391C15.3859 17.9181 15.3601 17.7884 15.3601 17.6574C15.3601 17.5265 15.3859 17.3968 15.4361 17.2758C15.4862 17.1548 15.5598 17.045 15.6525 16.9524L21.3125 11.2924C21.405 11.1997 21.5149 11.1262 21.6359 11.076C21.7568 11.0258 21.8865 11 22.0175 11C22.1485 11 22.2782 11.0258 22.3991 11.076C22.5201 11.1262 22.63 11.1997 22.7225 11.2924L23.4325 12.0024C23.8225 12.3924 23.8225 13.0224 23.4325 13.4124L22.7225 14.1024L24.1425 15.5324C24.235 15.4397 24.3449 15.3662 24.4659 15.316C24.5868 15.2658 24.7165 15.24 24.8475 15.24C24.9785 15.24 25.1082 15.2658 25.2291 15.316C25.3501 15.3662 25.46 15.4397 25.5525 15.5324C25.9425 15.9224 25.9425 16.5624 25.5525 16.9524L26.9625 18.3624L27.6725 17.6524C28.0625 17.2624 28.7025 17.2624 29.0925 17.6524L29.7925 18.3624C30.1825 18.7524 30.1825 19.3924 29.7925 19.7824L24.1425 25.4324C23.7525 25.8224 23.1125 25.8224 22.7225 25.4324L22.0225 24.7324C21.9275 24.6402 21.8521 24.5298 21.8005 24.4078C21.749 24.2859 21.7224 24.1548 21.7224 24.0224C21.7224 23.89 21.749 23.759 21.8005 23.637C21.8521 23.5151 21.9275 23.4047 22.0225 23.3124L22.7225 22.6024L21.3125 21.1924L11.7025 30.8024C11.61 30.8951 11.5001 30.9687 11.3791 31.0189C11.2582 31.0691 11.1285 31.0949 10.9975 31.0949C10.8665 31.0949 10.7368 31.0691 10.6159 31.0189C10.4949 30.9687 10.385 30.8951 10.2925 30.8024C9.9025 30.4124 9.9025 29.7724 10.2925 29.3824ZM27.9925 28.1024C28.5229 28.1024 29.0316 28.3132 29.4067 28.6882C29.7818 29.0633 29.9925 29.572 29.9925 30.1024V31.1024H19.9925V30.1024C19.9925 29.572 20.2032 29.0633 20.5783 28.6882C20.9534 28.3132 21.4621 28.1024 21.9925 28.1024H27.9925Z" fill="white"/>
</svg>
