<svg width="42" height="42" viewBox="0 0 42 42" fill="none" xmlns="http://www.w3.org/2000/svg">
<circle cx="21" cy="21" r="21" fill="#368236"/>
<path d="M22.9266 13C22.5288 13 22.1473 13.158 21.866 13.4393C21.5847 13.7206 21.4266 14.1022 21.4266 14.5C21.4266 14.8978 21.5847 15.2794 21.866 15.5607C22.1473 15.842 22.5288 16 22.9266 16C23.3245 16 23.706 15.842 23.9873 15.5607C24.2686 15.2794 24.4266 14.8978 24.4266 14.5C24.4266 14.1022 24.2686 13.7206 23.9873 13.4393C23.706 13.158 23.3245 13 22.9266 13ZM22.5666 17.77C21.3766 17.87 18.1266 20.46 18.1266 20.46C17.9266 20.61 17.9866 20.6 18.1466 20.88C18.3066 21.15 18.2866 21.17 18.4766 21.04C18.6766 20.91 19.0066 20.7 19.5566 20.36C21.6766 19 19.8966 22.14 18.9866 27.43C18.6266 30.05 20.9866 28.7 21.5966 28.3C22.1966 27.91 23.8066 26.8 23.9666 26.69C24.1866 26.54 24.0266 26.42 23.8566 26.17C23.7366 26 23.6166 26.12 23.6166 26.12C22.9666 26.55 21.7766 27.45 21.6166 26.88C21.4266 26.31 22.6466 22.4 23.3166 19.71C23.4266 19.07 23.7266 17.67 22.5666 17.77Z" fill="white"/>
</svg>
