<svg width="42" height="42" viewBox="0 0 42 42" fill="none" xmlns="http://www.w3.org/2000/svg">
<circle cx="21" cy="21" r="21" fill="#368236"/>
<path d="M28.2861 28.8852C28.2861 29.6531 27.6714 30.2752 26.915 30.2752H16.085C15.3286 30.2752 14.7139 29.6531 14.7139 28.8852V12.1138C14.7139 11.3469 15.3286 10.7237 16.085 10.7237H24.6204C24.8158 10.7237 24.9991 10.8007 25.1368 10.9404L28.0745 13.9308C28.2112 14.0704 28.2861 14.2563 28.2861 14.4523V28.8852ZM25.2047 24.1916V19.6028C25.2047 19.4026 25.0447 19.2404 24.8472 19.2404C24.6498 19.2404 24.4908 19.4026 24.4908 19.6028V24.1916C24.4908 24.3908 24.6498 24.554 24.8472 24.554C25.0447 24.554 25.2047 24.3908 25.2047 24.1916ZM22.9637 24.554C23.1612 24.554 23.3212 24.3908 23.3212 24.1916V20.9425C23.3212 20.7423 23.1612 20.5811 22.9637 20.5811C22.7663 20.5811 22.6063 20.7423 22.6063 20.9425V24.1916C22.6063 24.3908 22.7663 24.554 22.9637 24.554ZM21.1765 24.554C21.3739 24.554 21.5339 24.3908 21.5339 24.1916V18.5043C21.5339 18.3041 21.3739 18.1429 21.1765 18.1429C20.979 18.1429 20.819 18.3041 20.819 18.5043V24.1916C20.819 24.3908 20.979 24.554 21.1765 24.554ZM19.3244 24.554C19.5218 24.554 19.6818 24.3908 19.6818 24.1916V20.5482C19.6818 20.3481 19.5218 20.1869 19.3244 20.1869C19.1279 20.1869 18.9669 20.3481 18.9669 20.5482V24.1916C18.9669 24.3908 19.1279 24.554 19.3244 24.554ZM26.2325 25.7685H17.6161V17.0332C17.6161 16.833 17.4551 16.6708 17.2586 16.6708C17.0601 16.6708 16.9012 16.833 16.9012 17.0332V26.1298C16.9012 26.33 17.0601 26.4922 17.2586 26.4922H26.2325C26.4279 26.4922 26.5889 26.33 26.5889 26.1298C26.5889 25.9297 26.4279 25.7685 26.2325 25.7685ZM27.2674 14.0417H25.0254V11.6497C25.0254 11.4485 24.8644 11.2873 24.668 11.2873C24.4705 11.2873 24.3115 11.4485 24.3115 11.6497V14.4031C24.3115 14.6032 24.4705 14.7654 24.668 14.7654H27.2674C27.4649 14.7654 27.6249 14.6032 27.6249 14.4031C27.6249 14.2029 27.4649 14.0417 27.2674 14.0417ZM28.5808 13.4206L25.6432 10.4291C25.3708 10.1519 25.0072 10 24.6204 10H16.085C14.9357 10 14 10.9486 14 12.1138V28.8852C14 30.0514 14.9357 31 16.085 31H26.915C28.0653 31 29 30.0514 29 28.8852V14.4523C29 14.0643 28.8511 13.6957 28.5808 13.4206Z" fill="white"/>
</svg>
