<svg width="21" height="20" viewBox="0 0 21 20" fill="none" xmlns="http://www.w3.org/2000/svg">
<path d="M2.79375 0V2.79375H0V4.65625H2.79375V7.45H4.65625V4.65625H7.45V2.79375H4.65625V0H2.79375ZM8.38125 2.79375V5.5875H5.5875V8.38125H2.79375V17.6938C2.79375 18.1877 2.98998 18.6614 3.33926 19.0107C3.68855 19.36 4.16228 19.5562 4.65625 19.5562H17.6938C18.7274 19.5562 19.5563 18.7274 19.5563 17.6938V16.7625H11.175C10.681 16.7625 10.2073 16.5663 9.85801 16.217C9.50873 15.8677 9.3125 15.394 9.3125 14.9V7.45C9.3125 6.95603 9.50873 6.4823 9.85801 6.13301C10.2073 5.78373 10.681 5.5875 11.175 5.5875H19.5563V4.65625C19.5563 4.16228 19.36 3.68855 19.0107 3.33926C18.6614 2.98998 18.1877 2.79375 17.6938 2.79375H8.38125ZM11.175 7.45V14.9H20.4875V7.45H11.175ZM14.9 9.77812C15.6729 9.77812 16.2969 10.4021 16.2969 11.175C16.2969 11.9479 15.6729 12.5719 14.9 12.5719C14.1271 12.5719 13.5031 11.9479 13.5031 11.175C13.5031 10.4021 14.1271 9.77812 14.9 9.77812Z" fill="white"/>
</svg>
